<svg viewBox="0 0 64 64" xmlns="http://www.w3.org/2000/svg"><path d="m56.37 39.066v-20.414h5.221v20.383c0 3.846-3.097 6.965-6.915 6.965-3.141 0-5.787-2.104-6.634-4.987l-4.409-16.424c-.169-.757-.838-1.326-1.642-1.326-.934 0-1.685.761-1.685 1.698v20.392h-5.226v-20.642h.004c.135-3.727 3.176-6.711 6.912-6.711 3.158 0 5.816 2.131 6.646 5.036l4.461 16.616h.009c.239.647.851 1.107 1.577 1.107.929 0 1.681-.757 1.681-1.693zm-32.984-20.419c3.818 0 6.916 3.12 6.916 6.965 0 3.159-2.09 5.828-4.953 6.681l-16.307 4.441c-.751.17-1.316.844-1.316 1.654v1.697h3.297 5.1 13.64v5.263h-27.263v-2.634-4.357c.013-3.168 2.12-5.832 5-6.672l16.498-4.484v-.009c.643-.241 1.099-.858 1.099-1.588 0-.937-.751-1.693-1.681-1.693h-.03-20.347v-5.264z" fill="#626262"/></svg>