<svg viewBox="0 0 310 310" xmlns="http://www.w3.org/2000/svg"><g transform="translate(4.999 5)"><path d="m300.001 150c0 82.821-67.18 150-150.032 150-82.831 0-149.968-67.179-149.968-150 0-82.852 67.137-150 149.968-150 82.852 0 150.032 67.148 150.032 150" fill="#6b489d"/><path d="m216.686 192.175c-14.393 16.711-30.807 27.103-43.04 32.151-12.668 5.175-18.309 5.344-18.88-8.837-1.079-27.293 11.059-77.91 23.504-123.352 10.752-39.368 12.234-46.194-6.455-52.279-14.149-4.54-24.203-1.408-44.977 17.737-26.838 24.71-67.687 80.831-88.239 123.564 5.26 4.667 11.091 9.26 15.43 12.403 4.667 3.365 8.36 2.317 11.8-3.006 15.228-23.684 40.563-49.008 69.867-66.777 1.354-4.836 2.783-9.62 4.212-14.276-24.235 11.419-44.067 26.139-44.067 26.139 25.081-46.003 61.423-83.254 68.068-80.333 4.255 1.831-10.307 38.923-20.731 76.735-11.948 43.294-17.98 76.312-16.118 100.483 1.715 21.991 18.965 27.833 44.681 16.573 19.356-8.519 37.664-25.06 51.04-45.231l-5.831-11.937c-.053.064-.158.201-.264.243m-7.387-96.303c-7.006-1.333-14.297-1.608-21.991-.846-.55 1.936-1.175 4.222-1.831 6.783 19.345-4.466 36.881-1.841 48.469 14.784 11.355 16.404 4.392 41.94-7.133 61.391l5.038 10.011c.053-.137.159-.222.201-.37 31.304-64.735-3.567-88.229-22.753-91.753" fill="#fff"/></g></svg>