<svg viewBox="4 0 730 730" xmlns="http://www.w3.org/2000/svg"><g transform="translate(-2982.436035 2735.955811)"><path d="m3422.5775-2239.3741c-18.6832 72.2274-151.2487 51.2067-269.6883-19.171-115.2528-67.687-179.4839-171.3614-147.1455-226.6882 32.3467-55.3267 146.229-41.1167 262.3984 24.216 81.9978 46.1616 175.3889 139.8303 154.4354 221.6432zm-34.6253-20.5163c-15.0342 55.7471-127.1003 43.3868-225.4944-14.6305-95.2158-56.2516-148.5162-142.6051-121.1806-188.3462 26.8813-46.1618 123.4508-38.8465 217.2961 19.6754 64.6936 40.1917 147.5996 115.1938 129.3789 183.3013zm-35.9877-20.1799c-11.8473 44.8163-101.5893 35.2307-179.9465-11.3514-75.616-44.8163-116.6148-117.9687-96.5778-150.4248 22.7864-36.0716 101.5977-28.7564 173.5728 15.5555 51.9298 31.5311 117.9855 91.9029 102.9515 146.2207zm-95.6698-53.3929c-4.0949 14.5464-32.7924 11.8557-57.3952-3.1951-24.1487-14.2101-36.9041-37.5012-30.5222-48.0116 7.29-11.8557 32.3469-9.5854 55.579 4.5405 15.9421 10.09 36.8956 29.261 32.3384 46.6662zm-210.4603-181.0311 131.6492 123.434m-90.7208-128.6061 97.5566 127.6813m-47.9082-121.5956 58.385 122.0159m-5.4654-106.9537 18.6749 111.0738m36.9041-86.3533-24.6028 91.8188m78.3572-59.3627-64.6852 68.1074m114.3446-28.8405-107.0546 35.6512m148.0537 9.1651-139.8555-.4205m163.0877 40.1918-158.5305-32.0357m170.8234 70.3776-168.0906-62.1374m167.1825 96.8638-167.645-89.0441m153.5275 116.5393-156.2603-111.5785m126.6461 129.4041-132.5655-126.2088m91.1125 130.7494-98.8566-129.3201m-10.9307-.9248 59.2197 123.35m-71.0671-126.5453 16.4046 110.149m-28.706-115.1939-25.5107 89.5487m14.1258-96.864-68.3343 64.9124m57.8576-73.5729-106.1467 34.2219m97.4862-43.387h-137.577m132.5656-9.165-158.0764-31.5312m155.7978 22.4501-169.0073-62.2214m169.9238 55.3266-168.5531-89.5485m171.2857 85.9329-154.4355-112.5033zm0 0-154.4355-112.5033" fill="none" stroke="#4c6895" stroke-miterlimit="2.613" stroke-width="2.614987"/><g fill="#4c6895" fill-rule="evenodd"><path d="m3438.5198-2357.2587 3.1868-23.2911h-35.9877l8.1982-56.2516h-25.9649l-13.2095 79.5427z"/><path d="m3704.1133-2436.2969c-1.3453 6.8107-2.2703 13.7055-4.5406 20.0959-6.8106.9248-14.6303.4203-21.8614.4203l-2.2703.925-10.5104 56.2517-.4205 1.3453h-25.5613l-.4204-.4205c2.6907-18.7506 6.3903-37.5011 8.1561-56.2515 0-.925-.925-1.3455-1.3453-1.3455h-22.2821c-2.3543-1.4293 0-4.6246-.5045-6.3902l2.7748-14.6305 1.3452-.925h77.0202z"/><path d="m3619.862-2437.2219-3.6998 19.1711-1.3453.9248h-37.8374l-1.3453 8.2402 32.7924.4204.5045.5045-3.1951 18.6664-1.4295 1.4295c-10.4262 0-21.3571-.5045-31.3629.4203-.925 2.7748-1.4295 5.4655-1.85 8.6606h39.1829l-1.8499 21.5254-1.8498.4203h-66.5098c-.4204-.4203-.4204-.4203-.8408-.8408l13.2011-77.6929c0-.9248.4203-1.8498 1.3453-1.8498z"/><path d="m3485.8922-2437.2219c7.29 12.7807 12.7555 25.9817 19.5913 38.8465h.4542l6.8358-37.9215 1.3707-.925h23.2321l1.3454.925-13.6468 78.1132-.9165 1.3453h-24.1402c-6.836-12.276-12.3014-25.1408-18.2208-36.9965h-.9081c-2.7411 12.3603-5.0114 24.7205-8.2065 36.9965-7.7441.5045-15.9423-.4203-24.1404 0l-.454-.8408c4.0949-26.9907 8.6521-52.636 13.2095-78.6177l.908-.925z"/><path d="m3340.5797-2437.2219h-25.9734l-14.1175 79.9632h63.7771l4.5573-22.8707h-37.3582z"/><path d="m3277.7107-2437.2219h-26.8814l-43.2776 79.9632h26.8813l5.4654-11.0149h26.419l1.3705 11.0149h28.2437zm-28.2435 50.2817 10.0226-20.6004 4.0949 20.6004z"/></g></g></svg>