<svg enable-background="new 0 0 57.26 48.19" viewBox="0 0 64 64" xmlns="http://www.w3.org/2000/svg" xmlns:xlink="http://www.w3.org/1999/xlink"><clipPath id="a"><path d="m0 0h57.26v48.19h-57.26z"/></clipPath><g fill="#005faa" transform="matrix(1.128748 0 0 1.128748 -.316048 10.683949)"><path clip-path="url(#a)" d="m43.31 19.16h3.71v-7.61h6.25v7.61h3.71v-18.49h-3.71v6.73h-6.25v-6.73h-3.71zm-.74-11.89c-.11-4.45-3.81-6.99-7.22-6.99-4.79 0-7.89 4.27-7.89 9.63s3.1 9.64 7.89 9.64c4.01 0 7-2.8 7.22-7.57h-4.12c-.15 2.12-1.26 3.42-3.19 3.42-2.66 0-3.68-2.74-3.68-5.49 0-2.74 1.02-5.49 3.68-5.49 1.73 0 2.97.98 3.19 2.85zm-29.32 11.89h4.24l1-3.31h5.51l.98 3.31h4.3l-5.93-18.49h-4.19zm7.98-13.36h.04l1.75 6.47h-3.59zm-16.82-1.4h3.19c.86 0 1.69.44 1.69 1.79 0 1.32-.98 1.76-1.69 1.76h-3.19zm-4.13 14.76h7.6c3.39 0 6.16-1.35 6.16-5.75 0-2.1-1.04-3.81-2.72-4.38 1.24-.72 2.08-2.07 2.08-3.73 0-3.86-2.99-4.69-5.72-4.63h-7.4v18.49zm4.13-8.11h3.3c1.24 0 2.22.54 2.22 2.17 0 1.53-.91 2.07-2.22 2.07h-3.3z"/><path d="m11.41 20.18-2.87 12.32h-.04l-2.88-12.32h-5.34v18.48h3.62v-14.03h.05l3.1 14.03h2.94l3.1-14.03h.04v14.03h3.62v-18.48z"/><path d="m23.35 31.78 1.68-6.47h.04l1.63 6.47zm-.25-11.6-5.53 18.49h3.95l.93-3.31h5.15l.91 3.31h4.01l-5.53-18.49z"/><path d="m53.27 20.18v10.99l-6.26-10.99h-3.7v10.99l-6.26-10.99h-3.71v18.48h3.71v-10.99l6.26 10.99h3.7v-.97-10.02l6.26 10.99h3.71v-.97-17.51z"/></g></svg>