<svg viewBox="-4 -63 250 250" xmlns="http://www.w3.org/2000/svg"><path d="m133.2 111.3h12.8c4 .2 5.9 2.3 5.4 6.3-.4 4-2.5 6.1-6.4 6.4h-7.6l-.6 5.8h-5.5zm4.8 7.8h6.9c1 0 1.6-.5 1.8-1.5s-.3-1.6-1.4-1.7h-6.9zm28.7 10.9h-8.7c-3.9 0-5.5-3.1-4.9-9.4s3-9.5 7.1-9.6h7.2c4.3-.1 6.1 3 5.4 9.2-.3 6.5-2.3 9.7-6.1 9.8m-8.5-6.4c.3.8.8 1.3 1.6 1.5h5.1c.9-.1 1.5-.5 1.8-1.2.4-.5.7-1.7.9-3.6s0-3.1-.4-3.6-1-.9-1.9-.9h-3.9c-1.1.1-1.9.6-2.4 1.7-.3.5-.6 1.5-.7 3.2-.2 1.5-.3 2.5-.1 2.9m40-12.3-1.9 18.6h-16.6c-3.7.1-5.4-1.9-5.2-5.9l1.3-12.7h4.7l-1.1 11.3c-.3 1.4.1 2.1 1.2 2h2.5l1.3-13.3h4.7l-1.3 13.3h4l1.3-13.3zm19.3 18.4h-13c-3.7-.2-5.3-3.3-4.7-9.2s2.9-9 6.9-9.2h12.7l-.4 4.5h-11.2c-1 0-1.5.2-1.7.7l-.4 1.6h13.2l-.5 4.4-13.1-.1v1c0 .9.4 1.4 1 1.4h11.9zm4.2-18.4h12.8c3.9.6 5.7 2.7 5.5 6.3-.1 2.6-1.1 4.7-3.1 6.2l2.6 6.1h-6.2l-2.5-5.8h-4.8l-.6 5.8h-5.5zm4.8 7.8h6.8c1 0 1.6-.5 1.8-1.5s-.3-1.6-1.4-1.7h-6.9z"/><path d="m220.7 0v20.8h-18.6v59.7h-22.1v-59.6h-21.1v-20.8l-20.8 20.8h-29.1v9.8h28.8v19.7h-28.8v9.9h28.8v20.2h-50.9v-59.6l16.2-16.3 4.5-4.5h-7.7l-20.7 20.8h-15c-5.1 0-9.5 1.7-12.9 5.7-3.4 3.9-5.2 8.5-5.2 13.7s1.8 10.2 5.2 14.2c3.5 3.9 7.8 5.9 12.9 5.9h15v20.2h-16.2c-10.8 0-19.8-3.9-27.1-11.8s-11-17.4-11-28.5 3.7-20.6 11-28.5l-17.2 17.1-6.5 6.5c-8.3 8-12.2 19.5-12.2 30.6 0 10.9 3.7 20.2 11 27.9s16.4 11.6 27.1 11.6h85.5l35.3-35.3 35.3 35.3h30.8v-64.8h15.6v-20.8z" fill="#ef2928"/><path d="m64.2 20.9h15l20.8-20.8-20.8-.1h-16.2c-10.8 0-19.9 3.9-27.2 11.8s-11 17.4-11 28.5 3.7 20.6 11 28.5 16.4 11.8 27.1 11.8h16.2v-20.2h-15c-5.1 0-9.5-2-12.9-5.9s-5.2-8.9-5.2-14.2c0-5.2 1.8-9.8 5.2-13.7 3.5-4 7.8-5.7 13-5.7zm22.7 0v59.7h50.9v-20.2h-28.8v-9.9h28.8v-19.8h-28.8v-9.8h29.1l20.8-20.8h-51.2zm72-20.8v20.8h21.1v59.7h22.1v-59.7h18.6v-20.9l-61.8.1zm-.7 33-2.8 2.8v11.7h-11.7l-2.8 2.8h14.6v14.6l2.8-2.8v-11.7h11.7l2.8-2.8h-14.6z" fill="#fff"/><path d="m132.6 105.4 26.3-26.3 26.3 26.3z" fill="#a9abad"/></svg>