<svg viewBox="-4 -7 150 150" xmlns="http://www.w3.org/2000/svg" xmlns:xlink="http://www.w3.org/1999/xlink"><radialGradient id="a" cx="0" cy="0" gradientTransform="matrix(59.30123976 11.86032064 11.86032064 -59.30123976 186.293782 149.399094)" gradientUnits="userSpaceOnUse" r="1" spreadMethod="pad"><stop offset="0" stop-color="#c40047"/><stop offset=".887" stop-color="#ff0070"/><stop offset="1" stop-color="#ff0070"/></radialGradient><clipPath id="b"><path d="m0 222.684h414.076v-222.684h-414.076z"/></clipPath><clipPath id="c"><path d="m163.133 145.269h78.235v-40.888h-78.235z"/></clipPath><clipPath id="d"><path d="m219.74 130.925a10.2 10.2 0 0 0 -1.613-5.958c-3.053-4.755-9.405-6.133-14.156-3.07a10.2 10.2 0 0 0 -3.663 4.135c-21.896 1.446-36.917 26.674-37.165 17.055-.487-18.907 16.329-38.706 39.275-38.706s38.95 19.312 38.95 38.706c0 7.128-8.378-4.873-21.628-12.162"/></clipPath><linearGradient id="e" gradientTransform="matrix(50.16122782 -7.10416802 -7.10416802 -50.16122782 173.700313 131.384869)" gradientUnits="userSpaceOnUse" spreadMethod="pad" x1="0" x2="1" y1="0" y2="0"><stop offset="0" stop-color="#fff" stop-opacity="0"/><stop offset=".21" stop-color="#fff" stop-opacity="0"/><stop offset=".995" stop-color="#fff"/><stop offset="1" stop-color="#fff"/></linearGradient><mask id="f" height="1" maskUnits="userSpaceOnUse" width="1" x="0" y="0"><path d="m-32768 32767h65535v-65535h-65535z" fill="url(#e)"/></mask><linearGradient id="g" gradientTransform="matrix(50.16122782 -7.10416802 -7.10416802 -50.16122782 173.700313 131.384869)" gradientUnits="userSpaceOnUse" spreadMethod="pad" x1="0" x2="1" y1="0" y2="0"><stop offset="0" stop-color="#d02685"/><stop offset=".21" stop-color="#d02685"/><stop offset=".995" stop-color="#b81e47"/><stop offset="1" stop-color="#b81e47"/></linearGradient><clipPath id="h"><path d="m197.97 181.627c-9.895-1.301-19.121-7.011-24.51-13.297-5.626-6.11-7.799-11.717-7.89-12.003 35.388 21.746 42.574.516 57.72-4.501l3.027 4.04c-4.882 4.753-6.134 12.37-2.559 18.534.211.364.459.69.696 1.027-6 4.066-13.754 6.581-21.421 6.581-1.698 0-3.393-.123-5.063-.381"/></clipPath><linearGradient id="i" gradientTransform="matrix(84.6881436 -13.27998197 -13.27998197 -84.6881436 182.276961 169.704408)" gradientUnits="userSpaceOnUse" spreadMethod="pad" x1="0" x2="1" y1="0" y2="0"><stop offset="0" stop-color="#fff" stop-opacity="0"/><stop offset=".006" stop-color="#fff" stop-opacity="0"/><stop offset=".083" stop-color="#fff" stop-opacity="0"/><stop offset=".608" stop-color="#fff"/><stop offset="1" stop-color="#fff"/></linearGradient><mask id="j" height="1" maskUnits="userSpaceOnUse" width="1" x="0" y="0"><path d="m-32768 32767h65535v-65535h-65535z" fill="url(#i)"/></mask><linearGradient id="k" gradientTransform="matrix(84.6881436 -13.27998197 -13.27998197 -84.6881436 182.276961 169.704408)" gradientUnits="userSpaceOnUse" spreadMethod="pad" x1="0" x2="1" y1="0" y2="0"><stop offset="0" stop-color="#d31c5b"/><stop offset=".006" stop-color="#d31c5b"/><stop offset=".083" stop-color="#d31c5b"/><stop offset=".608" stop-color="#f1f5f3"/><stop offset="1" stop-color="#f1f5f3"/></linearGradient><clipPath id="l"><path d="m227.507 150.888c2.367-.237 4.97-.053 7.882.724a15.1 15.1 0 0 0 -5.93 1.886z"/></clipPath><linearGradient id="m" gradientTransform="matrix(60.96812928 32.51567009 32.51567009 -60.96812928 183.697621 126.558202)" gradientUnits="userSpaceOnUse" spreadMethod="pad" x1="0" x2="1" y1="0" y2="0"><stop offset="0" stop-color="#fff" stop-opacity="0"/><stop offset=".006" stop-color="#fff" stop-opacity="0"/><stop offset=".186" stop-color="#fff" stop-opacity="0"/><stop offset=".515" stop-color="#fff"/><stop offset=".829" stop-color="#fff"/><stop offset="1" stop-color="#fff"/></linearGradient><mask id="n" height="1" maskUnits="userSpaceOnUse" width="1" x="0" y="0"><path d="m-32768 32767h65535v-65535h-65535z" fill="url(#m)"/></mask><linearGradient id="o" gradientTransform="matrix(60.96812928 32.51567009 32.51567009 -60.96812928 183.697621 126.558202)" gradientUnits="userSpaceOnUse" spreadMethod="pad" x1="0" x2="1" y1="0" y2="0"><stop offset="0" stop-color="#d31c5b"/><stop offset=".006" stop-color="#d31c5b"/><stop offset=".186" stop-color="#d31c5b"/><stop offset=".515" stop-color="#ed3b70"/><stop offset=".829" stop-color="#edc6d7"/><stop offset="1" stop-color="#edc6d7"/></linearGradient><clipPath id="p"><path d="m161.424 143.22c0-22.946 18.601-41.547 41.547-41.547l.999 20.221c-4.509 2.904-5.972 8.74-3.522 13.393l-9.874 7.392-3.049-4.074-11.297 8.456 8.456 11.297 11.296-8.456-3.048-4.073 9.982-7.472c3.101 2.608 7.541 3.189 11.253 1.291l12.15 16.216c-4.882 4.754-6.134 12.37-2.559 18.534a15.2 15.2 0 0 0 2.513 3.222 41.36 41.36 0 0 1 -23.3 7.146c-22.946 0-41.547-18.601-41.547-41.546"/></clipPath><linearGradient id="q" gradientTransform="matrix(23.44596793 -57.86209884 -57.86209884 -23.44596793 179.225215 192.457909)" gradientUnits="userSpaceOnUse" spreadMethod="pad" x1="0" x2="1" y1="0" y2="0"><stop offset="0" stop-color="#fff" stop-opacity=".8"/><stop offset=".064" stop-color="#fff" stop-opacity=".8"/><stop offset=".986" stop-color="#fff" stop-opacity="0"/><stop offset="1" stop-color="#fff" stop-opacity="0"/></linearGradient><mask id="r" height="1" maskUnits="userSpaceOnUse" width="1" x="0" y="0"><path d="m-32768 32767h65535v-65535h-65535z" fill="url(#q)"/></mask><linearGradient id="s" gradientTransform="matrix(23.44596793 -57.86209884 -57.86209884 -23.44596793 179.225215 192.457909)" gradientUnits="userSpaceOnUse" spreadMethod="pad" x1="0" x2="1" y1="0" y2="0"><stop offset="0" stop-color="#fff"/><stop offset=".064" stop-color="#fff"/><stop offset=".986" stop-color="#ff93ff"/><stop offset="1" stop-color="#ff93ff"/></linearGradient><clipPath id="t"><path d="m0 222.684h414.076v-222.684h-414.076z"/></clipPath><clipPath id="u"><path d="m163.133 145.269h78.235v-40.888h-78.235z"/></clipPath><clipPath id="v"><path d="m219.74 130.925a10.2 10.2 0 0 0 -1.613-5.958c-3.053-4.755-9.405-6.133-14.156-3.07a10.2 10.2 0 0 0 -3.663 4.135c-21.896 1.446-36.917 26.674-37.165 17.055-.487-18.907 16.329-38.706 39.275-38.706s38.95 19.312 38.95 38.706c0 7.128-8.378-4.873-21.628-12.162"/></clipPath><mask id="w" height="1" maskUnits="userSpaceOnUse" width="1" x="0" y="0"><path d="m-32768 32767h65535v-65535h-65535z" fill="url(#e)"/></mask><clipPath id="x"><path d="m197.97 181.627c-9.895-1.301-19.121-7.011-24.51-13.297-5.626-6.11-7.799-11.717-7.89-12.003 35.388 21.746 42.574.516 57.72-4.501l3.027 4.04c-4.882 4.753-6.134 12.37-2.559 18.534.211.364.459.69.696 1.027-6 4.066-13.754 6.581-21.421 6.581-1.698 0-3.393-.123-5.063-.381"/></clipPath><mask id="y" height="1" maskUnits="userSpaceOnUse" width="1" x="0" y="0"><path d="m-32768 32767h65535v-65535h-65535z" fill="url(#i)"/></mask><clipPath id="z"><path d="m227.507 150.888c2.367-.237 4.97-.053 7.882.724a15.1 15.1 0 0 0 -5.93 1.886z"/></clipPath><mask id="A" height="1" maskUnits="userSpaceOnUse" width="1" x="0" y="0"><path d="m-32768 32767h65535v-65535h-65535z" fill="url(#m)"/></mask><clipPath id="B"><path d="m161.424 143.22c0-22.946 18.601-41.547 41.547-41.547l.999 20.221c-4.509 2.904-5.972 8.74-3.522 13.393l-9.874 7.392-3.049-4.074-11.297 8.456 8.456 11.297 11.296-8.456-3.048-4.073 9.982-7.472c3.101 2.608 7.541 3.189 11.253 1.291l12.15 16.216c-4.882 4.754-6.134 12.37-2.559 18.534a15.2 15.2 0 0 0 2.513 3.222 41.36 41.36 0 0 1 -23.3 7.146c-22.946 0-41.547-18.601-41.547-41.546"/></clipPath><mask id="C" height="1" maskUnits="userSpaceOnUse" width="1" x="0" y="0"><path d="m-32768 32767h65535v-65535h-65535z" fill="url(#q)"/></mask><clipPath id="D"><path d="m0 222.684h414.076v-222.684h-414.076z"/></clipPath><clipPath id="E"><path d="m163.133 145.269h78.235v-40.888h-78.235z"/></clipPath><clipPath id="F"><path d="m219.74 130.925a10.2 10.2 0 0 0 -1.613-5.958c-3.053-4.755-9.405-6.133-14.156-3.07a10.2 10.2 0 0 0 -3.663 4.135c-21.896 1.446-36.917 26.674-37.165 17.055-.487-18.907 16.329-38.706 39.275-38.706s38.95 19.312 38.95 38.706c0 7.128-8.378-4.873-21.628-12.162"/></clipPath><mask id="G" height="1" maskUnits="userSpaceOnUse" width="1" x="0" y="0"><path d="m-32768 32767h65535v-65535h-65535z" fill="url(#e)"/></mask><clipPath id="H"><path d="m197.97 181.627c-9.895-1.301-19.121-7.011-24.51-13.297-5.626-6.11-7.799-11.717-7.89-12.003 35.388 21.746 42.574.516 57.72-4.501l3.027 4.04c-4.882 4.753-6.134 12.37-2.559 18.534.211.364.459.69.696 1.027-6 4.066-13.754 6.581-21.421 6.581-1.698 0-3.393-.123-5.063-.381"/></clipPath><mask id="I" height="1" maskUnits="userSpaceOnUse" width="1" x="0" y="0"><path d="m-32768 32767h65535v-65535h-65535z" fill="url(#i)"/></mask><clipPath id="J"><path d="m227.507 150.888c2.367-.237 4.97-.053 7.882.724a15.1 15.1 0 0 0 -5.93 1.886z"/></clipPath><mask id="K" height="1" maskUnits="userSpaceOnUse" width="1" x="0" y="0"><path d="m-32768 32767h65535v-65535h-65535z" fill="url(#m)"/></mask><clipPath id="L"><path d="m161.424 143.22c0-22.946 18.601-41.547 41.547-41.547l.999 20.221c-4.509 2.904-5.972 8.74-3.522 13.393l-9.874 7.392-3.049-4.074-11.297 8.456 8.456 11.297 11.296-8.456-3.048-4.073 9.982-7.472c3.101 2.608 7.541 3.189 11.253 1.291l12.15 16.216c-4.882 4.754-6.134 12.37-2.559 18.534a15.2 15.2 0 0 0 2.513 3.222 41.36 41.36 0 0 1 -23.3 7.146c-22.946 0-41.547-18.601-41.547-41.546"/></clipPath><mask id="M" height="1" maskUnits="userSpaceOnUse" width="1" x="0" y="0"><path d="m-32768 32767h65535v-65535h-65535z" fill="url(#q)"/></mask><path d="m161.424 143.22c0-22.946 18.601-41.547 41.547-41.547s41.546 18.601 41.546 41.547c0 3.355-.408 6.613-1.159 9.738-4.305-1.992-9.466-1.961-13.897.539l-12.199-16.282a10.28 10.28 0 0 0 2.478-6.293 10.2 10.2 0 0 0 -1.613-5.957c-3.054-4.755-9.405-6.134-14.157-3.071a10.2 10.2 0 0 0 -3.663 4.136 10.26 10.26 0 0 0 .141 9.257l-9.874 7.392-3.049-4.074-11.297 8.456 8.456 11.297 11.296-8.456-3.048-4.073 9.982-7.472c3.101 2.608 7.541 3.189 11.253 1.291l12.15 16.216c-4.882 4.754-6.134 12.37-2.559 18.534a15.2 15.2 0 0 0 2.513 3.222 41.36 41.36 0 0 1 -23.3 7.146c-22.946 0-41.547-18.601-41.547-41.546" fill="url(#a)" transform="matrix(1.33333 0 0 -1.33333 -215.232 270.153)"/><g clip-path="url(#b)" transform="matrix(1.33333 0 0 -1.33333 -215.232 270.153)"><path d="m226.27 177.62.008-.006z" fill="#fff"/><g clip-path="url(#c)" opacity=".85"><g clip-path="url(#d)" mask="url(#f)"><path d="m219.74 130.925a10.2 10.2 0 0 0 -1.613-5.958c-3.053-4.755-9.405-6.133-14.156-3.07a10.2 10.2 0 0 0 -3.663 4.135c-21.896 1.446-36.917 26.674-37.165 17.055-.487-18.907 16.329-38.706 39.275-38.706s38.95 19.312 38.95 38.706c0 7.128-8.378-4.873-21.628-12.162" fill="url(#g)"/></g></g><path d="m264.297 177.331c-5.37-6.71-15.17-7.806-21.877-2.433-6.71 5.378-7.801 15.161-2.43 21.88 5.372 6.707 15.162 7.797 21.877 2.418 6.715-5.355 7.795-15.16 2.43-21.865"/></g><g clip-path="url(#h)" transform="matrix(1.33333 0 0 -1.33333 -215.232 270.153)"><g mask="url(#j)"><path d="m197.97 181.627c-9.895-1.301-19.121-7.011-24.51-13.297-5.626-6.11-7.799-11.717-7.89-12.003 35.388 21.746 42.574.516 57.72-4.501l3.027 4.04c-4.882 4.753-6.134 12.37-2.559 18.534.211.364.459.69.696 1.027-6 4.066-13.754 6.581-21.421 6.581-1.698 0-3.393-.123-5.063-.381" fill="url(#k)"/></g></g><g clip-path="url(#l)" transform="matrix(1.33333 0 0 -1.33333 -215.232 270.153)"><g mask="url(#n)"><path d="m227.507 150.888c2.367-.237 4.97-.053 7.882.724a15.1 15.1 0 0 0 -5.93 1.886z" fill="url(#o)"/></g></g><g clip-path="url(#p)" transform="matrix(1.33333 0 0 -1.33333 -215.232 270.153)"><g mask="url(#r)"><path d="m161.424 143.22c0-22.946 18.601-41.547 41.547-41.547l.999 20.221c-4.509 2.904-5.972 8.74-3.522 13.393l-9.874 7.392-3.049-4.074-11.297 8.456 8.456 11.297 11.296-8.456-3.048-4.073 9.982-7.472c3.101 2.608 7.541 3.189 11.253 1.291l12.15 16.216c-4.882 4.754-6.134 12.37-2.559 18.534a15.2 15.2 0 0 0 2.513 3.222 41.36 41.36 0 0 1 -23.3 7.146c-22.946 0-41.547-18.601-41.547-41.546" fill="url(#s)"/></g></g><path d="m161.424 143.22c0-22.946 18.601-41.547 41.547-41.547s41.546 18.601 41.546 41.547c0 3.355-.408 6.613-1.159 9.738-4.305-1.992-9.466-1.961-13.897.539l-12.199-16.282a10.28 10.28 0 0 0 2.478-6.293 10.2 10.2 0 0 0 -1.613-5.957c-3.054-4.755-9.405-6.134-14.157-3.071a10.2 10.2 0 0 0 -3.663 4.136 10.26 10.26 0 0 0 .141 9.257l-9.874 7.392-3.049-4.074-11.297 8.456 8.456 11.297 11.296-8.456-3.048-4.073 9.982-7.472c3.101 2.608 7.541 3.189 11.253 1.291l12.15 16.216c-4.882 4.754-6.134 12.37-2.559 18.534a15.2 15.2 0 0 0 2.513 3.222 41.36 41.36 0 0 1 -23.3 7.146c-22.946 0-41.547-18.601-41.547-41.546" fill="url(#a)" transform="matrix(1.33333 0 0 -1.33333 -215.232 270.153)"/><g clip-path="url(#t)" transform="matrix(1.33333 0 0 -1.33333 -215.232 270.153)"><path d="m226.27 177.62.008-.006z" fill="#fff"/><g clip-path="url(#u)" opacity=".85"><g clip-path="url(#v)" mask="url(#w)"><path d="m219.74 130.925a10.2 10.2 0 0 0 -1.613-5.958c-3.053-4.755-9.405-6.133-14.156-3.07a10.2 10.2 0 0 0 -3.663 4.135c-21.896 1.446-36.917 26.674-37.165 17.055-.487-18.907 16.329-38.706 39.275-38.706s38.95 19.312 38.95 38.706c0 7.128-8.378-4.873-21.628-12.162" fill="url(#g)"/></g></g><path d="m264.297 177.331c-5.37-6.71-15.17-7.806-21.877-2.433-6.71 5.378-7.801 15.161-2.43 21.88 5.372 6.707 15.162 7.797 21.877 2.418 6.715-5.355 7.795-15.16 2.43-21.865"/></g><g clip-path="url(#x)" transform="matrix(1.33333 0 0 -1.33333 -215.232 270.153)"><g mask="url(#y)"><path d="m197.97 181.627c-9.895-1.301-19.121-7.011-24.51-13.297-5.626-6.11-7.799-11.717-7.89-12.003 35.388 21.746 42.574.516 57.72-4.501l3.027 4.04c-4.882 4.753-6.134 12.37-2.559 18.534.211.364.459.69.696 1.027-6 4.066-13.754 6.581-21.421 6.581-1.698 0-3.393-.123-5.063-.381" fill="url(#k)"/></g></g><g clip-path="url(#z)" transform="matrix(1.33333 0 0 -1.33333 -215.232 270.153)"><g mask="url(#A)"><path d="m227.507 150.888c2.367-.237 4.97-.053 7.882.724a15.1 15.1 0 0 0 -5.93 1.886z" fill="url(#o)"/></g></g><g clip-path="url(#B)" transform="matrix(1.33333 0 0 -1.33333 -215.232 270.153)"><g mask="url(#C)"><path d="m161.424 143.22c0-22.946 18.601-41.547 41.547-41.547l.999 20.221c-4.509 2.904-5.972 8.74-3.522 13.393l-9.874 7.392-3.049-4.074-11.297 8.456 8.456 11.297 11.296-8.456-3.048-4.073 9.982-7.472c3.101 2.608 7.541 3.189 11.253 1.291l12.15 16.216c-4.882 4.754-6.134 12.37-2.559 18.534a15.2 15.2 0 0 0 2.513 3.222 41.36 41.36 0 0 1 -23.3 7.146c-22.946 0-41.547-18.601-41.547-41.546" fill="url(#s)"/></g></g><path d="m161.424 143.22c0-22.946 18.601-41.547 41.547-41.547s41.546 18.601 41.546 41.547c0 3.355-.408 6.613-1.159 9.738-4.305-1.992-9.466-1.961-13.897.539l-12.199-16.282a10.28 10.28 0 0 0 2.478-6.293 10.2 10.2 0 0 0 -1.613-5.957c-3.054-4.755-9.405-6.134-14.157-3.071a10.2 10.2 0 0 0 -3.663 4.136 10.26 10.26 0 0 0 .141 9.257l-9.874 7.392-3.049-4.074-11.297 8.456 8.456 11.297 11.296-8.456-3.048-4.073 9.982-7.472c3.101 2.608 7.541 3.189 11.253 1.291l12.15 16.216c-4.882 4.754-6.134 12.37-2.559 18.534a15.2 15.2 0 0 0 2.513 3.222 41.36 41.36 0 0 1 -23.3 7.146c-22.946 0-41.547-18.601-41.547-41.546" fill="url(#a)" transform="matrix(1.33333 0 0 -1.33333 -215.232 270.153)"/><g clip-path="url(#D)" transform="matrix(1.33333 0 0 -1.33333 -215.232 270.153)"><path d="m226.27 177.62.008-.006z" fill="#c8c8c8"/><g clip-path="url(#E)" opacity=".85"><g clip-path="url(#F)" mask="url(#G)"><path d="m219.74 130.925a10.2 10.2 0 0 0 -1.613-5.958c-3.053-4.755-9.405-6.133-14.156-3.07a10.2 10.2 0 0 0 -3.663 4.135c-21.896 1.446-36.917 26.674-37.165 17.055-.487-18.907 16.329-38.706 39.275-38.706s38.95 19.312 38.95 38.706c0 7.128-8.378-4.873-21.628-12.162" fill="#c8c8c8"/></g></g><path d="m264.297 177.331c-5.37-6.71-15.17-7.806-21.877-2.433-6.71 5.378-7.801 15.161-2.43 21.88 5.372 6.707 15.162 7.797 21.877 2.418 6.715-5.355 7.795-15.16 2.43-21.865" fill="#c8c8c8"/></g><g clip-path="url(#H)" transform="matrix(1.33333 0 0 -1.33333 -215.232 270.153)"><g mask="url(#I)"><path d="m197.97 181.627c-9.895-1.301-19.121-7.011-24.51-13.297-5.626-6.11-7.799-11.717-7.89-12.003 35.388 21.746 42.574.516 57.72-4.501l3.027 4.04c-4.882 4.753-6.134 12.37-2.559 18.534.211.364.459.69.696 1.027-6 4.066-13.754 6.581-21.421 6.581-1.698 0-3.393-.123-5.063-.381" fill="url(#k)"/></g></g><g clip-path="url(#J)" transform="matrix(1.33333 0 0 -1.33333 -215.232 270.153)"><g mask="url(#K)"><path d="m227.507 150.888c2.367-.237 4.97-.053 7.882.724a15.1 15.1 0 0 0 -5.93 1.886z" fill="url(#o)"/></g></g><g clip-path="url(#L)" transform="matrix(1.33333 0 0 -1.33333 -215.232 270.153)"><g mask="url(#M)"><path d="m161.424 143.22c0-22.946 18.601-41.547 41.547-41.547l.999 20.221c-4.509 2.904-5.972 8.74-3.522 13.393l-9.874 7.392-3.049-4.074-11.297 8.456 8.456 11.297 11.296-8.456-3.048-4.073 9.982-7.472c3.101 2.608 7.541 3.189 11.253 1.291l12.15 16.216c-4.882 4.754-6.134 12.37-2.559 18.534a15.2 15.2 0 0 0 2.513 3.222 41.36 41.36 0 0 1 -23.3 7.146c-22.946 0-41.547-18.601-41.547-41.546" fill="url(#s)"/></g></g></svg>