<svg enable-background="new 0 0 340.2 113.4" viewBox="-5 -11 137 137" xmlns="http://www.w3.org/2000/svg"><path d="m63.8 4.3-63.7 104.7h127.1zm12.1 92.6c-3 0-5.7-.9-8-2.4-.1 0-.1.1-.2.1-7.2 5-15.1 8.2-22.3 8.2-.4 0-.8 0-1.1 0-5.4-.2-9.5-2.4-12.1-5.3s-3.8-6.4-3.9-9.4c0-.2 0-.5 0-.7.1-8.9 6.2-18.6 14.6-26.5 8.2-7.9 19.1-13.8 29.7-13.9h.2c4.9 0 9.2 1.6 12 4.5 2.9 2.9 4.4 7 4.3 11.3 0 3-.7 6.2-2 9.3 2.3 2.6 3.7 6.1 3.7 9.8 0 8.3-6.6 15-14.9 15zm5-41.5c-1.7-1.7-4.3-2.9-8.1-2.9h-.1c-8.5 0-18.5 5.2-26.1 12.4-7.8 7.1-13 16.2-12.9 22.4v.5c.1 1.7.8 4.1 2.5 5.9s4.2 3.3 8.3 3.5h.9c5.4 0 12.1-2.5 18.4-6.7-1.7-2.4-2.8-5.3-2.8-8.5 0-8.2 6.7-14.9 14.9-14.9 2.4 0 4.6.6 6.6 1.6.7-2.1 1.1-4 1.1-5.8 0-3.3-1-5.7-2.7-7.5z" fill="#fff"/></svg>