<svg fill="none" viewBox="0 0 74 74" xmlns="http://www.w3.org/2000/svg"><path d="m59.886 10.527c-.146.013-.289.023-.441.023-10.631 0-17.629 5.311-22.805 18.749-6.158 16.224-8.535 27.137-23.506 27.137-2.519 0-3.916-1.958-3.916-4.058 0-1.958 1.397-4.062 3.916-4.062 8.672 0 9.237-3.497 16.091-21.683 4.045-11.298 10.939-19.138 19.981-22.446-3.801-1.414-7.908-2.187-12.205-2.187-19.326 0-35.001 15.666-35.001 34.996 0 10.583 4.696 20.058 12.124 26.476.136-.016.281-.016.436-.016 10.487 0 17.487-5.32 22.663-18.748 6.161-16.239 8.678-27.143 23.507-27.143 2.657 0 4.056 1.962 4.056 3.92 0 2.237-1.399 4.188-4.056 4.188-8.673 0-9.097 3.498-15.955 21.692-4.034 11.282-10.996 19.116-20.01 22.425 3.809 1.419 7.932 2.21 12.232 2.21 19.332 0 35.003-15.672 35.003-35.004 0-10.586-4.703-20.053-12.115-26.471" fill="#26afda"/></svg>