<svg viewBox="-3 -16 96 64" xmlns="http://www.w3.org/2000/svg"><g fill="#153248"><path d="m209.374 175.516v21.3h-4.751v-1.766h-.109a4.329 4.329 0 0 1 -1.439 1.615 3.692 3.692 0 0 1 -1.978.512 3 3 0 0 1 -2.369-.892 3.941 3.941 0 0 1 -.788-2.678v-18.091h4.824v16.54a1.63 1.63 0 0 0 .213.976.832.832 0 0 0 .7.271.722.722 0 0 0 .645-.289 1.8 1.8 0 0 0 .2-.959v-16.54z" transform="translate(-197.94 -169.619)"/><path d="m224.8 191.294v-17.917h-1.187v-3.385h1.187v-2a3.115 3.115 0 0 1 .966-2.432 3.846 3.846 0 0 1 2.689-.878h2.723v3.345a2.7 2.7 0 0 0 -1.2.191.671.671 0 0 0 -.352.649v1.126h1v3.385h-1v17.917z" transform="translate(-211.031 -164.096)"/><path d="m253.681 168.839a4.862 4.862 0 0 1 1.682-3.947 7.133 7.133 0 0 1 4.705-1.406 7.026 7.026 0 0 1 4.7 1.415 5.033 5.033 0 0 1 1.652 4.044v4.349h-5.444v-4.727a1.77 1.77 0 0 0 -.2-1 .81.81 0 0 0 -.7-.278.836.836 0 0 0 -.73.3 1.761 1.761 0 0 0 -.211.984v2.363a3.161 3.161 0 0 0 .156 1.039 2.786 2.786 0 0 0 .508.858l5.254 5.628a4.744 4.744 0 0 1 1.047 1.639 8.782 8.782 0 0 1 .315 2.766v3.1a4.836 4.836 0 0 1 -1.662 3.943 7.2 7.2 0 0 1 -4.727 1.381 6.892 6.892 0 0 1 -4.744-1.443 5.445 5.445 0 0 1 -1.606-4.259v-4.978h5.447v5.354a1.818 1.818 0 0 0 .211.993.834.834 0 0 0 .73.306.788.788 0 0 0 .693-.3 1.751 1.751 0 0 0 .214-1v-2.81a2.641 2.641 0 0 0 -.214-1.073 3.961 3.961 0 0 0 -.73-1.074l-4.936-5.447a5.364 5.364 0 0 1 -1.087-1.674 6.393 6.393 0 0 1 -.327-2.251v-2.8z" transform="translate(-226.359 -163.486)"/><path d="m281.828 201.208v-26.1h4.747v1.787h.074a4.335 4.335 0 0 1 1.469-1.65 3.682 3.682 0 0 1 1.988-.531 2.966 2.966 0 0 1 2.367.909 4.038 4.038 0 0 1 .789 2.714v14.903a4.018 4.018 0 0 1 -.789 2.708 2.965 2.965 0 0 1 -2.367.914 3.7 3.7 0 0 1 -1.961-.513 4.1 4.1 0 0 1 -1.419-1.523h-.077v6.383zm4.822-21.323v11.835a1.7 1.7 0 0 0 .215.96.756.756 0 0 0 .661.306.782.782 0 0 0 .68-.27 1.819 1.819 0 0 0 .2-1v-11.831a1.8 1.8 0 0 0 -.2-1 .8.8 0 0 0 -.68-.263.753.753 0 0 0 -.661.306 1.7 1.7 0 0 0 -.215.957z" transform="translate(-240.71 -169.208)"/><path d="m307.258 179.385a4.519 4.519 0 0 1 1.44-3.642 6.418 6.418 0 0 1 4.26-1.227q3.081 0 4.391 1.363t1.306 4.7v12.952a11.986 11.986 0 0 0 .084 1.508 7.874 7.874 0 0 0 .268 1.271h-4.9c-.06-.252-.108-.507-.148-.768a5.073 5.073 0 0 1 -.055-.711v-.331h-.074a3.9 3.9 0 0 1 -1.4 1.6 3.742 3.742 0 0 1 -2.053.56 2.939 2.939 0 0 1 -2.332-.9 3.961 3.961 0 0 1 -.789-2.671v-4.507a5.346 5.346 0 0 1 .622-2.735 4.838 4.838 0 0 1 2-1.777c.3-.157.72-.368 1.264-.631q2.731-1.354 2.732-2.58v-1.509a1.761 1.761 0 0 0 -.215-.994.791.791 0 0 0 -.7-.307.7.7 0 0 0 -.642.307 1.9 1.9 0 0 0 -.2.994v3.1h-4.862zm6.613 12.124v-5.644a3.464 3.464 0 0 0 -.3.214q-1.453 1.084-1.453 1.912v3.517a1.741 1.741 0 0 0 .2.984.8.8 0 0 0 .68.262.762.762 0 0 0 .66-.3 1.629 1.629 0 0 0 .213-.945z" transform="translate(-253.675 -169.109)"/><path d="m332.771 190.774v-10.194q0-3.358 1.3-4.711t4.363-1.354a6.567 6.567 0 0 1 4.213 1.22 4.078 4.078 0 0 1 1.52 3.367v3.35h-4.823v-3.314a1.839 1.839 0 0 0 -.2-1 .9.9 0 0 0 -1.341 0 1.852 1.852 0 0 0 -.205 1v12.882a1.853 1.853 0 0 0 .205 1 .9.9 0 0 0 1.341 0 1.84 1.84 0 0 0 .2-1v-3.992h4.823v3.958a4.445 4.445 0 0 1 -1.494 3.58 6.285 6.285 0 0 1 -4.2 1.272q-3.066 0-4.382-1.373t-1.32-4.691z" transform="translate(-266.682 -169.109)"/><path d="m362.731 192.021a1.834 1.834 0 0 0 .206 1 .9.9 0 0 0 1.34 0 1.835 1.835 0 0 0 .206-1v-3.992h4.823v3.958a4.442 4.442 0 0 1 -1.5 3.58 6.29 6.29 0 0 1 -4.2 1.272q-3.061 0-4.38-1.373t-1.318-4.69v-10.2q0-3.356 1.3-4.709t4.361-1.354a6.557 6.557 0 0 1 4.214 1.22 4.076 4.076 0 0 1 1.523 3.365v7.228h-6.575zm0-12.883v4.017h1.752v-4.017a1.829 1.829 0 0 0 -.206-1 .9.9 0 0 0 -1.34 0 1.829 1.829 0 0 0 -.206.999z" transform="translate(-279.498 -169.109)"/><path d="m246.1 177.531a2.743 2.743 0 1 1 -2.741-2.666 2.7 2.7 0 0 1 2.741 2.666z" transform="translate(-219.698 -169.288)"/><path d="m245.929 189.76a4.34 4.34 0 0 1 -2.344.58 3.794 3.794 0 0 1 -2.244-.58h-.127v14.32h4.822v-14.32z" transform="translate(-220.003 -176.881)"/></g></svg>