<svg viewBox="0 0 430 430" xmlns="http://www.w3.org/2000/svg"><path d="m26.503 308.108c-4.185-.543-8.007-3.193-9.957-6.902-1.877-3.572-2.057-7.918-.475-11.475.281-.633 13.661-21.795 29.732-47.027 16.072-25.233 35.152-55.189 42.4-66.569 7.248-11.381 13.402-21.244 13.676-21.918 1.013-2.494.787-5.575-.584-7.971-.734-1.283-2.508-3.018-3.718-3.635-2.171-1.108-.893-1.067-33.686-1.071-33.947 0-31.93.081-35.114-1.488-5.574-2.748-8.531-9.493-6.778-15.46.981-3.338 3.765-6.7 6.771-8.178 3.125-1.536-1.652-1.424 58.25-1.364l53.883.054 1.358.465c4.051 1.385 7.363 4.737 8.629 8.731.371 1.174.463 1.959.463 3.971-.001 2.74-.412 4.47-1.517 6.375-.3.517-19.543 30.756-42.761 67.196-23.219 36.441-42.398 66.668-42.621 67.171-.526 1.188-.707 3.803-.364 5.274.651 2.799 2.571 5.17 5.203 6.427l1.592.761 34.591.108c38.65.12 35.384-.016 38.666 1.615 2.076 1.031 4.402 3.327 5.497 5.425 3.235 6.199 1.403 13.537-4.339 17.378-1.77 1.184-3.514 1.825-5.756 2.115-1.932.251-111.107.242-113.041-.01zm285.724-.087c-1.709-.312-4.169-1.4-5.549-2.454-1.419-1.083-3.012-3.03-3.802-4.646-1.477-3.021-1.358 5.143-1.299-89.787l.053-85.788.571-1.563c.71-1.947 2.155-4.087 3.689-5.463 1.409-1.264 4.449-2.788 6.177-3.098.85-.152 15.401-.222 46.314-.222 44.203 0 45.105.01 46.688.413 2.446.625 3.954 1.519 5.989 3.55 1.369 1.367 1.966 2.152 2.548 3.352 1.538 3.176 1.786 6.862.683 10.148-.702 2.091-1.369 3.208-2.888 4.831-1.581 1.69-3.368 2.857-5.475 3.575l-1.672.571-31.038.106c-29.4.101-31.099.127-32.188.491-4.614 1.541-8.255 5.369-9.293 9.772-.467 1.98-.47 34.118-.004 36.096 1.12 4.751 4.985 8.626 9.842 9.868 1.56.399 2.421.413 26.607.416 27.927 0 26.54-.066 29.691 1.488 3.179 1.567 5.759 4.677 6.826 8.227.605 2.013.515 5.597-.194 7.734-1.289 3.887-4.583 7.189-8.506 8.524l-1.358.463-26.126.104-26.126.105-1.802.645c-3.531 1.264-6.196 3.567-7.719 6.67-1.509 3.074-1.452 2.25-1.452 21.016 0 15.978.021 16.934.404 18.433 1.217 4.759 4.752 8.28 9.733 9.695 1.158.329 3.478.352 30.515.303 20.892-.038 29.793.015 31.122.184 5.832.744 10.351 4.87 11.5 10.503.415 2.031.415 3.319.002 5.319-.987 4.781-4.269 8.464-8.957 10.054l-1.689.572-45.145.035c-36.813.029-45.428-.016-46.672-.243zm-88.452-.041c-1.145-.192-3.312-.988-4.599-1.69-1.792-.978-4.705-3.888-5.695-5.69-.411-.748-.967-2.017-1.236-2.822l-.488-1.463-.109-71.795c-.099-65.354-.139-71.891-.446-72.873-1.49-4.754-4.383-7.829-8.853-9.408l-1.67-.59-14.212-.114c-13.002-.103-14.311-.145-15.363-.493-4.715-1.561-8.171-5.269-9.202-9.872-.323-1.442-.265-4.786.109-6.242 1.074-4.186 4.203-7.595 8.466-9.224l1.568-.599 53.611-.06c37.821-.042 54.011.01 54.969.167 1.829.305 4.82 1.785 6.313 3.124 1.568 1.406 3.099 3.729 3.732 5.661.44 1.343.509 1.946.506 4.379-.003 2.415-.074 3.018-.489 4.18-1.398 3.919-4.617 7.068-8.599 8.412-1.33.449-1.653.461-15.571.578-15.818.133-14.942.053-17.96 1.631-2.994 1.565-5.432 4.54-6.627 8.086-.233.692-.3 13.198-.388 72.63-.102 68.147-.126 71.858-.48 73.049-1.625 5.455-5.616 9.462-10.726 10.769-1.524.39-4.987.531-6.561.268z" fill="#00bffe"/></svg>